<svg width="27.528" height="17.376" viewBox="0 0 27.528 17.376" xmlns="http://www.w3.org/2000/svg">
    <g id="svgGroup" stroke-linecap="round" fill-rule="evenodd" font-size="9pt" stroke="#fff"
        stroke-width="0.25mm" fill="#fff" style="stroke:#fff;stroke-width:0.25mm;fill:#fff">
        <path
            d="M 26.88 1.368 L 26.04 3.264 Q 25.032 2.712 23.988 2.352 Q 22.944 1.992 21.672 1.992 Q 20.16 1.992 18.984 2.796 Q 17.808 3.6 17.124 5.16 Q 16.44 6.72 16.44 8.976 Q 16.44 10.992 17.064 12.42 Q 17.688 13.848 18.792 14.616 Q 19.896 15.384 21.336 15.384 Q 22.68 15.384 23.724 14.82 Q 24.768 14.256 25.368 13.656 L 25.368 9.984 L 21.888 9.984 L 21.888 8.184 L 27.528 8.184 L 27.528 17.088 L 25.512 17.088 L 25.512 15.408 Q 24.672 16.152 23.472 16.764 Q 22.272 17.376 20.808 17.376 Q 18.864 17.376 17.352 16.368 Q 15.84 15.36 14.976 13.5 Q 14.112 11.64 14.112 9.12 Q 14.112 6.432 15.024 4.38 Q 15.936 2.328 17.652 1.164 Q 19.368 0 21.792 0 Q 23.352 0 24.576 0.384 Q 25.8 0.768 26.88 1.368 Z M 0 15.672 L 1.152 13.752 Q 2.016 14.472 3.096 14.928 Q 4.176 15.384 5.616 15.384 Q 7.344 15.384 8.352 14.664 Q 9.36 13.944 9.36 12.72 Q 9.36 12.024 9.072 11.484 Q 8.784 10.944 7.956 10.428 Q 7.128 9.912 5.52 9.312 Q 3.792 8.64 2.76 7.956 Q 1.728 7.272 1.284 6.396 Q 0.84 5.52 0.84 4.32 Q 0.84 3.12 1.5 2.148 Q 2.16 1.176 3.444 0.588 Q 4.728 0 6.552 0 Q 8.04 0 9.228 0.3 Q 10.416 0.6 11.544 1.152 L 10.704 3.096 Q 9.888 2.616 8.796 2.292 Q 7.704 1.968 6.504 1.968 Q 4.92 1.968 4.008 2.592 Q 3.096 3.216 3.096 4.2 Q 3.096 4.824 3.36 5.304 Q 3.624 5.784 4.404 6.24 Q 5.184 6.696 6.744 7.272 Q 8.616 7.968 9.708 8.736 Q 10.8 9.504 11.256 10.404 Q 11.712 11.304 11.712 12.456 Q 11.712 14.016 10.932 15.12 Q 10.152 16.224 8.772 16.8 Q 7.392 17.376 5.616 17.376 Q 3.864 17.376 2.424 16.908 Q 0.984 16.44 0 15.672 Z"
            vector-effect="non-scaling-stroke" />
    </g>
</svg>